<svg width="64" height="32" xmlns="http://www.w3.org/2000/svg">
  <!-- 左手套 -->
  <g id="left_glove">
    <!-- 手套主体 -->
    <path d="M 5,2 L 15,2 L 15,22 L 5,22 Z" fill="#8B4513" stroke="#000000" stroke-width="1"/>
    <!-- 手套装饰 -->
    <path d="M 7,4 L 13,4 L 13,8 L 7,8 Z" fill="#DAA520" stroke="#000000" stroke-width="0.5"/>
    <!-- 手指部分 -->
    <path d="M 6,22 L 8,22 L 8,26 L 6,26 Z" fill="#8B4513" stroke="#000000" stroke-width="0.5"/>
    <path d="M 9,22 L 11,22 L 11,28 L 9,28 Z" fill="#8B4513" stroke="#000000" stroke-width="0.5"/>
    <path d="M 12,22 L 14,22 L 14,26 L 12,26 Z" fill="#8B4513" stroke="#000000" stroke-width="0.5"/>
    <!-- 能量效果 -->
    <circle cx="10" cy="15" r="3" fill="#FF4500" opacity="0.7"/>
  </g>

  <!-- 右手套 -->
  <g id="right_glove">
    <!-- 手套主体 -->
    <path d="M 49,2 L 59,2 L 59,22 L 49,22 Z" fill="#8B4513" stroke="#000000" stroke-width="1"/>
    <!-- 手套装饰 -->
    <path d="M 51,4 L 57,4 L 57,8 L 51,8 Z" fill="#DAA520" stroke="#000000" stroke-width="0.5"/>
    <!-- 手指部分 -->
    <path d="M 50,22 L 52,22 L 52,26 L 50,26 Z" fill="#8B4513" stroke="#000000" stroke-width="0.5"/>
    <path d="M 53,22 L 55,22 L 55,28 L 53,28 Z" fill="#8B4513" stroke="#000000" stroke-width="0.5"/>
    <path d="M 56,22 L 58,22 L 58,26 L 56,26 Z" fill="#8B4513" stroke="#000000" stroke-width="0.5"/>
    <!-- 能量效果 -->
    <circle cx="54" cy="15" r="3" fill="#FF4500" opacity="0.7"/>
  </g>
</svg>